<svg xmlns="http://www.w3.org/2000/svg" viewBox="0 0 256 256">
  <path
    d="M128 384Q128 398 137 407Q146 416 160 416H320Q334 416 343 407Q352 398 352 384V32H448V192Q448 206 457 215Q466 224 480 224H608Q622 224 631 215Q640 206 640 192Q640 178 631 169Q622 160 608 160H512V0Q512 -14 503 -23Q494 -32 480 -32H320Q306 -32 297 -23Q288 -14 288 0V352H192V192Q192 178 183 169Q174 160 160 160H32Q18 160 9 169Q0 178 0 192Q0 206 9 215Q18 224 32 224H128V384Z"
    fill="#0dcaf0"
    transform="translate(24.0000 190.4000) scale(0.325000 -0.325000)"
  />
</svg>
